 <svg version="1.0" xmlns="http://www.w3.org/2000/svg" width="700.000000pt" height="1400.000000pt" viewBox="0 0 700.000000 1400.000000" preserveAspectRatio="xMidYMid meet">
<metadata>
Created by potrace 1.12, written by Peter Selinger 2001-2015
</metadata>
<g transform="translate(0.000000,1400.000000) scale(0.100000,-0.100000)" fill="#000000" stroke="none">
<path d="M3270 13989 c-19 -4 -73 -13 -120 -20 -204 -28 -469 -116 -660 -221
-337 -185 -656 -507 -822 -833 -101 -197 -172 -412 -210 -635 -28 -166 -31
-475 -5 -626 35 -207 102 -424 179 -577 21 -43 36 -82 34 -86 -3 -4 -28 -11
-56 -14 -59 -7 -142 -44 -182 -80 -91 -84 -133 -182 -126 -299 9 -173 127
-307 302 -342 l61 -13 3 -4206 2 -4207 -22 0 c-43 0 -153 -42 -200 -75 -195
-142 -196 -445 -1 -588 50 -36 157 -77 202 -77 19 0 44 -18 91 -66 110 -112
252 -225 355 -284 288 -164 527 -245 945 -318 42 -7 45 -10 48 -42 5 -65 44
-167 81 -216 154 -204 452 -218 619 -29 58 66 102 172 102 247 0 15 4 29 9 32
5 4 49 13 98 21 210 36 362 78 553 155 251 100 430 214 616 393 111 107 112
107 161 107 67 0 168 34 226 77 195 143 194 446 -1 588 -51 37 -158 75 -210
75 l-32 0 2 4207 3 4208 59 7 c180 23 314 166 324 346 5 91 -16 164 -67 231
-73 98 -143 136 -272 151 -45 5 -84 12 -87 15 -3 2 13 44 35 92 136 295 194
554 194 865 0 278 -49 527 -157 798 -21 52 -50 117 -66 143 -15 26 -28 50 -28
52 0 10 -92 150 -154 235 -138 187 -368 399 -554 511 -228 139 -517 245 -757
279 -44 6 -99 15 -123 21 -51 11 -342 10 -392 -2z m388 -160 c224 -24 431 -83
627 -178 528 -258 894 -728 1022 -1311 52 -242 40 -654 -27 -875 -45 -147
-103 -288 -164 -400 l-44 -80 -1600 -3 -1601 -2 -19 27 c-11 16 -43 75 -72
132 -226 453 -250 1031 -62 1506 25 64 94 207 130 267 95 165 286 385 441 510
385 310 889 460 1369 407z m1703 -3009 c180 -34 240 -239 105 -358 -20 -17
-52 -36 -73 -41 -53 -15 -3733 -15 -3786 0 -47 13 -102 60 -128 110 -58 114
20 262 151 288 65 13 3664 14 3731 1z m-253 -1500 c1 -465 -1 -697 -8 -705
-10 -12 -66 -38 -335 -155 -66 -29 -138 -60 -160 -70 -76 -33 -530 -232 -645
-282 -63 -28 -133 -58 -155 -68 -22 -10 -130 -57 -240 -105 -110 -48 -270
-118 -355 -155 -85 -37 -265 -116 -400 -175 -268 -117 -548 -240 -595 -261
-255 -112 -329 -143 -336 -138 -5 3 -9 307 -9 705 l0 700 68 30 c91 41 110 49
242 107 118 51 574 251 645 282 22 10 74 32 115 50 41 18 93 40 115 50 22 10
150 66 285 125 135 59 263 115 285 125 91 40 373 163 560 245 202 88 323 141
695 304 113 50 210 89 215 87 7 -2 11 -245 13 -696z m0 -3180 c1 -327 0 -604
-3 -616 -3 -14 -22 -29 -52 -42 -50 -21 -466 -203 -518 -226 -16 -8 -82 -36
-145 -64 -406 -177 -534 -233 -755 -330 -88 -39 -250 -109 -360 -157 -110 -48
-218 -95 -240 -105 -22 -10 -94 -41 -160 -70 -66 -29 -138 -60 -160 -70 -22
-10 -76 -33 -120 -53 -44 -19 -127 -55 -185 -80 -58 -25 -197 -87 -310 -137
-112 -49 -210 -90 -217 -90 -19 0 -19 1223 0 1237 6 5 73 36 147 68 74 32 158
68 185 80 28 13 84 37 125 55 41 18 93 40 115 50 22 10 202 89 400 175 198 86
378 165 400 175 22 10 182 79 355 155 173 76 333 145 355 155 292 128 389 171
560 245 110 48 223 97 250 109 28 13 70 31 94 42 24 10 81 36 125 56 45 20 88
36 96 35 13 -2 15 -77 18 -597z m0 -3080 c2 -523 1 -575 -14 -592 -10 -10 -21
-18 -25 -18 -5 0 -32 -11 -61 -24 -80 -36 -126 -56 -343 -151 -110 -48 -218
-95 -240 -105 -22 -10 -112 -49 -200 -88 -88 -38 -182 -79 -209 -91 -48 -21
-52 -21 -1085 -21 -570 0 -1042 4 -1049 8 -9 7 -12 40 -10 132 l3 122 116 52
c64 28 133 59 155 68 108 47 213 92 249 108 62 27 517 226 645 282 63 28 133
58 155 68 22 10 130 57 240 105 110 48 272 119 360 157 88 39 178 78 200 88
22 10 130 57 240 105 110 48 274 120 365 160 91 39 185 81 209 91 24 10 96 42
160 71 64 28 121 51 126 49 6 -2 11 -204 13 -576z m283 -1401 c127 -38 189
-193 120 -301 -34 -53 -71 -82 -126 -97 -57 -16 -3713 -16 -3770 0 -55 15 -92
44 -126 97 -67 106 -11 254 113 299 47 16 3733 18 3789 2z m-330 -557 c-5 -10
-33 -38 -62 -63 -220 -188 -467 -310 -794 -394 -829 -212 -1780 -39 -2267 414
-27 24 -48 48 -48 52 0 5 705 9 1590 9 1538 0 1590 -1 1581 -18z m-1337 -658
c19 -51 -16 -162 -66 -211 -44 -43 -113 -73 -168 -73 -89 0 -189 69 -225 157
-15 36 -21 124 -8 136 3 4 109 7 234 7 198 0 228 -2 233 -16z"></path>
<path d="M3213 13565 c-270 -83 -476 -203 -674 -392 -460 -440 -660 -1108
-510 -1703 24 -98 55 -186 64 -183 4 2 38 49 76 106 161 240 338 349 589 364
92 6 112 13 95 36 -5 7 -19 44 -31 82 -158 515 -88 985 207 1380 68 91 189
223 256 278 96 80 91 82 -72 32z"></path>
</g>
</svg>