 <svg version="1.0" xmlns="http://www.w3.org/2000/svg" width="700.000000pt" height="700.000000pt" viewBox="0 0 700.000000 700.000000" preserveAspectRatio="xMidYMid meet">
<metadata>
Created by potrace 1.12, written by Peter Selinger 2001-2015
</metadata>
<g transform="translate(0.000000,700.000000) scale(0.100000,-0.100000)" fill="#000000" stroke="none">
<path d="M945 5891 c-8 -15 32 -114 67 -162 45 -65 95 -115 169 -170 72 -53
84 -57 93 -33 10 26 8 29 -43 63 -71 46 -181 168 -220 245 -31 61 -52 79 -66
57z"></path>
<path d="M1650 5701 c-97 -39 -186 -84 -219 -108 -40 -31 -81 -114 -81 -166 0
-74 427 -1205 710 -1882 23 -55 52 -125 64 -155 198 -482 606 -1381 896 -1976
126 -257 140 -277 224 -304 21 -7 57 -10 81 -7 45 7 467 197 498 225 38 34 59
92 55 146 -3 41 -21 82 -90 206 -399 722 -928 1768 -1245 2465 -196 429 -385
861 -543 1235 -57 136 -114 258 -129 273 -59 65 -137 82 -221 48z m135 -235
c98 -41 100 -202 4 -252 -45 -23 -121 -15 -154 16 -71 67 -49 197 39 236 40
17 69 17 111 0z"></path>
<path d="M1675 5385 c-14 -13 -25 -36 -25 -50 0 -30 49 -85 75 -85 21 0 57 19
72 39 35 45 -7 121 -67 121 -19 0 -40 -9 -55 -25z"></path>
<path d="M2148 5284 c-3 -3 4 -26 17 -52 12 -26 39 -85 59 -132 l36 -85 238
-119 c520 -259 754 -410 806 -519 30 -65 16 -106 -58 -175 -25 -23 -46 -48
-46 -56 0 -21 24 -38 230 -156 107 -62 238 -138 290 -170 99 -60 413 -242 855
-497 688 -397 1141 -629 1263 -649 41 -6 45 -5 89 37 63 61 98 115 117 179 21
72 20 135 -5 242 -20 84 -23 89 -57 107 -21 11 -203 114 -407 231 -811 465
-1603 911 -2000 1127 -66 36 -142 78 -170 93 -270 147 -803 418 -970 493 -63
28 -269 107 -280 107 -1 0 -4 -2 -7 -6z"></path>
</g>
</svg>